# xmcd
#
# Track frame offsets:
#	150
#	12010
#	25582
#	42705
#	60282
#	75745
#	91550
#	100827
#	117205
#	132857
#	147297
#
# Disc length: 2126 seconds
#
# Revision: 2
# Processed by: cddbd v1.4PL0 Copyright (c) Steve Scherf et al.
# Submitted via: EasyCDDAExtractor 6.0.0.1
#
DISCID=7c084c0b
DTITLE=Mitch Woods And His Rocket 88's - Steady Date
DYEAR=1984
DGENRE=Blues
TTITLE0=Short, Sweet and Tender
TTITLE1=Down Boy Down
TTITLE2=Amber Lee
TTITLE3=Cruise-O-Matic
TTITLE4=Juke Box Drive
TTITLE5=Rocket 88
TTITLE6=International Playboy
TTITLE7=Nite Life Boogie
TTITLE8=Mojo Mambo
TTITLE9=All She Wants To Do Is Rock
TTITLE10=Boogie-Woogie Bar-B-Que
EXTD=
EXTT0=
EXTT1=
EXTT2=
EXTT3=
EXTT4=
EXTT5=
EXTT6=
EXTT7=
EXTT8=
EXTT9=
EXTT10=
PLAYORDER=
